<?xml version="1.0" standalone="no"?>
<!DOCTYPE svg PUBLIC "-//W3C//DTD SVG 20010904//EN"
 "http://www.w3.org/TR/2001/REC-SVG-20010904/DTD/svg10.dtd">
<svg version="1.0" xmlns="http://www.w3.org/2000/svg"
 width="500.000000pt" height="500.000000pt" viewBox="0 0 500.000000 500.000000"
 preserveAspectRatio="xMidYMid meet">
<metadata>
Created by potrace 1.14, written by Peter Selinger 2001-2017
</metadata>
<g transform="translate(0.000000,500.000000) scale(0.100000,-0.100000)"
fill="#000000" stroke="none">
<path d="M2125 4666 c-40 -19 -201 -175 -802 -777 -804 -806 -792 -793 -793
-893 0 -113 -42 -66 779 -889 416 -418 773 -770 795 -784 55 -35 156 -43 217
-16 130 58 187 189 138 319 -18 48 -79 112 -675 708 l-655 655 650 650 c422
422 658 665 672 692 26 51 31 129 13 189 -41 138 -206 209 -339 146z"/>
<path d="M2693 3709 c-47 -9 -120 -59 -147 -100 -51 -76 -58 -178 -18 -255 12
-23 290 -308 671 -689 l651 -650 -654 -655 c-360 -360 -662 -671 -672 -690
-25 -47 -26 -172 -2 -215 70 -126 213 -176 336 -118 22 10 338 320 798 779
829 829 794 789 794 903 0 99 7 92 -811 907 -617 615 -771 764 -802 774 -47
15 -101 18 -144 9z"/>
</g>
</svg>
